<svg viewBox="0 0 16 15.745" xmlns="http://www.w3.org/2000/svg"><path d="m10.685 0 1.15 1.062L13 1.497l3 5.75v7.5a.25.25 0 0 1-.25.25h-2a.25.25 0 0 1-.25-.25V8.46l-.5-.838v7.873a.25.25 0 0 1-.25.25h-9.5a.25.25 0 0 1-.25-.25V7.622l-.5.845v6.28a.25.25 0 0 1-.25.25h-2a.25.25 0 0 1-.25-.25v-7.5l3-5.75 1.437-.452L5.525 0h5.16ZM3.5 15.245h4.25v-11.5a.25.25 0 1 1 .5 0v11.5h4.25v-8.5h.567L14 8.325v5.2h1.5V7.372l-2.855-5.475-.873-.325-2.375 2.203a.25.25 0 0 1-.34 0l-1.09-1.028-.91.875a.249.249 0 0 1-.35 0L4.565 1.527l-1.218.383L.5 7.372v6.125H2V8.325l1-1.703V5.497a.25.25 0 0 1 .5 0v9.748ZM2 13.995H.5v.5H2v-.5Zm13.5 0H14v.5h1.5v-.5Zm-6.25-2a.5.5 0 1 1 0 .996.5.5 0 0 1 0-.994v-.002Zm0-2.25a.5.5 0 1 1 0 .996.5.5 0 0 1 0-.994v-.002Zm0-2.25a.5.5 0 1 1 0 .996.5.5 0 0 1 0-.994v-.002Zm-2.5-2v.877a1.126 1.126 0 0 1-2.25 0v-.875a.25.25 0 0 1 .25-.25H6.5a.25.25 0 0 1 .25.25v-.002Zm-.5.25H5v.627a.625.625 0 0 0 1.25 0v-.627Zm6.25.5v-.5a.25.25 0 1 1 .5 0v.5h-.5Zm-3.25-1a.5.5 0 1 1 0 .996.5.5 0 0 1 0-.994v-.002Zm1.417-4.57L8.515 2.572l.717.675L11.32 1.31l-.653-.635Zm-5.12 0-.565.56 1.903 1.857.692-.672L5.547.675Zm4.568-.18h-4l2.025 1.75 1.975-1.75Z"/></svg>