<svg viewBox="0 0 16 22.15" xmlns="http://www.w3.org/2000/svg"><path d="m8.73 5.851 2.696.623-.156.673-2.696-.623.156-.673ZM6.313 0h-.692v2.768h.692V0Zm4.208 2.316-.434-.539-2.15 1.74.435.54 2.149-1.741ZM3.4 6.503l-.156-.673-2.696.622.156.673L3.4 6.503ZM16 12.112v4.154a5.88 5.88 0 0 1-5.884 5.884c-2.215 0-4.429-1.039-6.022-3.876-2.211-4.085-5.12-6.785-3.734-8.171.97-.969 2.493 0 3.875 1.245V5.189c0-.97.76-1.73 1.73-1.73s1.73.76 1.73 1.73v3.46a1.699 1.699 0 0 1 1.038-.348c.692 0 1.314.416 1.593 1.108.347-.279.76-.417 1.176-.417.97 0 1.729.76 1.729 1.73a1.71 1.71 0 0 1 1.039-.347c.97.007 1.73.767 1.73 1.737Zm-.691 0c0-.554-.485-1.039-1.039-1.039-.554 0-1.038.485-1.038 1.039v.347h-.692v-1.73c0-.553-.485-1.038-1.038-1.038-.554 0-1.039.485-1.039 1.038v1.039h-.691v-1.73C9.772 9.485 9.287 9 8.733 9c-.553 0-1.038.485-1.038 1.038v2.421h-.691v-7.27c0-.553-.485-1.038-1.039-1.038-.553 0-1.038.485-1.038 1.038v7.82C3.472 11.486 1.605 9.825.845 10.588c-.691.76 1.245 2.837 3.875 7.404 1.245 2.008 2.769 3.46 5.399 3.46 2.837 0 5.19-2.494 5.19-5.19v-4.15ZM4.08 3.528l-2.15-1.74-.434.539 2.15 1.74.434-.539Z"/></svg>