<svg viewBox="0 0 16 16.163" xmlns="http://www.w3.org/2000/svg"><path d="M16 7.53h-.775V3.962c0-.855-.696-1.55-1.551-1.55h-1.051L11.549.479a.931.931 0 0 0-1.266-.361L6.158 2.411H1.551C.696 2.411 0 3.107 0 3.962v10.65c0 .855.696 1.551 1.551 1.551h12.123c.855 0 1.551-.696 1.551-1.551v-3.128H16V7.53Zm-2.326-4.498c.477 0 .868.363.92.827h-1.166l-.459-.827h.705ZM10.585.66a.315.315 0 0 1 .421.12l1.713 3.079H4.832L10.585.66Zm4.019 13.952a.93.93 0 0 1-.93.93H1.551a.932.932 0 0 1-.931-.93V3.962c0-.513.418-.93.931-.93h3.492l-1.488.827h-1.81a.31.31 0 1 0 0 .621h12.859v3.05h-2.268a1.913 1.913 0 0 0-1.911 1.91v.134c0 1.053.858 1.911 1.911 1.911h2.268v3.127Zm.776-3.748h-3.044a1.292 1.292 0 0 1-1.291-1.29V9.44c0-.711.579-1.29 1.291-1.29h3.044v2.714Zm-2.094-1.332a.685.685 0 1 1-1.37 0 .685.685 0 0 1 1.37 0Z"/></svg>